PathFileType	4	(X/Y/Z)	C:/Users/beibeiliu/ov580/test_trc/User3\sequence.5_training_dense_right.trc
DataRate	CameraRate	NumFrames	NumMarkers	Units	OrigDataRate	OrigDataStartFrame	OrigNumFrames
120	120	8	19	mm	120	1	119
Frame#	Time	ThumbCMC			ThumbMCP			ThumbIP			ThumbTip			IndexMCP			IndexPIP			IndexTip			MiddleMCP			MiddlePIP			MiddleTip			RingMCP			RingPIP			RingTip			PinkyMCP			PinkyPIP			PinkyTip			BackHand1			BackHand2			BackHand3	
		X0	Y0	Z0	X1	Y1	Z1	X2	Y2	Z2	X3	Y3	Z3	X4	Y4	Z4	X5	Y5	Z5	X6	Y6	Z6	X7	Y7	Z7	X8	Y8	Z8	X9	Y9	Z9	X10	Y10	Z10	X11	Y11	Z11	X12	Y12	Z12	X13	Y13	Z13	X14	Y14	Z14	X15	Y15	Z15	X16	Y16	Z16	X17	Y17	Z17	X18	Y18	Z18	
0	0	168.837	-29.3544	0.0861409	185.447	-19.004	-23.707	201.509	-13.1802	-47.597	213.32	-5.87226	-61.8695	163.081	-51.8703	-73.4309	135.635	-31.1862	-71.9154	140.655	-27.6629	-41.4316	145.512	-66.8205	-72.2324	124.027	-40.9715	-68.3382	134.92	-45.8275	-29.6534	132.204	-74.212	-63.402	112.038	-51.5709	-56.6528	122.328	-48.6999	-23.422	121.175	-82.7932	-53.8125	106.043	-59.9382	-46.6141	115.125	-58.9068	-18.1867	157.459	-91.1964	-14.9591	155.16	-83.6856	18.02	175.854	-61.4448	-1.11055	
1	0.00833333	161.788	-14.3121	-8.53918	168.803	-3.77574	-27.5911	184.579	7.65665	-53.8016	192.229	22.4836	-64.2113	155.621	-36.4845	-76.787	124.285	-21.8427	-74.6784	131.698	-24.7682	-41.6651	145.839	-52.8629	-75.5321	115.687	-35.2318	-67.3718	130.821	-38.1195	-31.2771	132.591	-63.4903	-67.7231	107.183	-54.8331	-57.6898	120.521	-44.0102	-25.6084	125.947	-77.6156	-55.4342	105.626	-59.0627	-46.0158	121.593	-54.974	-20.665	164.215	-76.4002	-20.428	161.078	-70.7733	12.2816	176.542	-43.8024	-9.33708	
2	0.0166667	148.989	0.949813	-6.8742	155.034	10.3404	-32.8618	166.008	27.8922	-55.4421	171.045	39.9954	-69.3674	146.434	-23.1961	-80.2023	114.753	-15.4766	-78.7048	120.442	-17.8969	-44.9993	136.913	-40.4504	-81.1508	108.444	-31.0425	-69.3386	126.492	-31.436	-33.0538	131.435	-57.4519	-69.2428	106.3	-48.4609	-59.6188	117.836	-40.7173	-27.6408	128.404	-69.574	-60.4201	106.224	-59.1303	-48.6462	117.714	-51.1394	-23.8114	167.764	-61.4429	-26.2989	165.487	-59.812	5.49466	171.893	-27.8215	-11.988	
3	0.025	141.97	8.92086	-11.308	144.178	21.94	-31.6918	152.909	37.6777	-58.6916	154.491	53.6868	-71.2402	140.5	-11.8852	-81.9555	105.745	-12.4505	-75.6178	115.691	-14.9025	-45.1059	134.753	-36.8747	-82.4901	103.572	-32.2372	-69.0508	121.675	-28.8727	-36.3	129.683	-49.0697	-73.6125	103.069	-45.9241	-56.8576	117.599	-35.7232	-29.5639	131.142	-63.7221	-62.9043	107.388	-57.1894	-52.648	120.49	-48.0252	-23.1523	170.427	-46.6898	-30.6969	164.84	-47.5253	3.65291	167.106	-12.8414	-19.3283	
4	0.0333333	135.456	15.1957	-13.2666	134.624	26.8072	-33.4413	138.788	44.9461	-58.2956	138.367	60.246	-73.2192	130.855	-8.07301	-85.4044	99.1484	-10.1882	-78.9525	110.076	-12.1127	-46.7085	133.529	-25.6873	-83.5046	100.212	-28.5161	-69.7329	116.716	-22.4023	-37.6207	132.21	-43.0462	-72.674	102.06	-41.6811	-57.7137	117.447	-32.2786	-29.2973	133.706	-60.3961	-63.8286	106.48	-53.2967	-51.1017	121.766	-45.715	-25.7485	168.63	-37.1376	-31.0564	168.031	-41.0892	0.712642	162.453	-8.68737	-17.5518	
5	0.0416667	125.577	17.3174	-14.3257	122.345	27.9714	-34.142	120.241	45.552	-55.0103	117.766	61.136	-70.4664	122.123	-0.57195	-84.6548	93.5471	-14.461	-77.0297	104.735	-4.4625	-45.3221	127.834	-23.1742	-84.0839	96.568	-31.5786	-72.4978	111.604	-21.0117	-38.7239	126.069	-37.8388	-75.6335	101.219	-45.9216	-60.1734	111.997	-31.5749	-32.8559	130.735	-56.3515	-67.5015	107.509	-53.5506	-55.8582	121.626	-44.5328	-24.9406	166.728	-32.1261	-36.0561	165.516	-30.4918	-5.03333	156.293	-0.734498	-22.9804	
6	0.05	116.076	16.3426	-13.102	108.964	32.4846	-31.1408	103.753	51.9652	-54.6157	96.343	64.395	-66.8119	113.27	1.33942	-84.8512	83.7368	-10.8912	-76.4611	98.48	-9.5599	-46.8201	119.3	-16.7673	-85.8935	91.2255	-29.9274	-72.7091	108.979	-20.2888	-38.9192	123.396	-37.9343	-77.2362	99.8228	-46.948	-60.5019	110.717	-33.8848	-32.1197	132.1	-49.1746	-68.3515	107.222	-55.3281	-53.4302	121.572	-42.431	-27.2285	162.51	-19.6905	-35.8969	161.625	-20.8549	-5.22646	147.103	7.44358	-23.44	
7	0.0583333	104.958	16.5466	-8.24368	95.5353	30.8285	-30.1545	85.8946	48.0925	-51.8898	76.5215	61.7731	-65.9642	101.761	4.41733	-85.774	78.5873	-16.874	-75.2976	92.3438	-8.76902	-45.6356	111.537	-17.0709	-86.8938	86.954	-32.292	-72.4147	108.326	-21.1318	-39.0733	119.051	-35.8095	-78.0865	98.7896	-48.4328	-60.3646	105.71	-31.8988	-33.6717	131.52	-45.0263	-70.3316	106.962	-53.5242	-58.3669	118.349	-42.1597	-28.3292	157.112	-10.2032	-42.4521	158.907	-13.5505	-5.877	137.269	14.7315	-21.2423	
